<?xml version="1.0" encoding="UTF-8"?>
<svg xmlns="http://www.w3.org/2000/svg" viewBox="0 0 600 600" width="600" height="600" role="img" aria-hidden="true">
<rect width="600" height="600" fill="#FFFFFF"/><circle cx="300" cy="315" r="118" fill="#C7A45F"/><line x1="455.0" y1="315.0" x2="555.0" y2="315.0" stroke="#C7A45F" stroke-width="3" stroke-linecap="round" opacity="0.55"/><line x1="452.0" y1="345.2" x2="550.1" y2="364.7" stroke="#C7A45F" stroke-width="3" stroke-linecap="round" opacity="0.55"/><line x1="443.2" y1="374.3" x2="535.6" y2="412.6" stroke="#C7A45F" stroke-width="3" stroke-linecap="round" opacity="0.55"/><line x1="428.9" y1="401.1" x2="512.0" y2="456.7" stroke="#C7A45F" stroke-width="3" stroke-linecap="round" opacity="0.55"/><line x1="409.6" y1="424.6" x2="480.3" y2="495.3" stroke="#C7A45F" stroke-width="3" stroke-linecap="round" opacity="0.55"/><line x1="386.1" y1="443.9" x2="441.7" y2="527.0" stroke="#C7A45F" stroke-width="3" stroke-linecap="round" opacity="0.55"/><line x1="359.3" y1="458.2" x2="397.6" y2="550.6" stroke="#C7A45F" stroke-width="3" stroke-linecap="round" opacity="0.55"/><line x1="330.2" y1="467.0" x2="349.7" y2="565.1" stroke="#C7A45F" stroke-width="3" stroke-linecap="round" opacity="0.55"/><line x1="300.0" y1="470.0" x2="300.0" y2="570.0" stroke="#C7A45F" stroke-width="3" stroke-linecap="round" opacity="0.55"/><line x1="269.8" y1="467.0" x2="250.3" y2="565.1" stroke="#C7A45F" stroke-width="3" stroke-linecap="round" opacity="0.55"/><line x1="240.7" y1="458.2" x2="202.4" y2="550.6" stroke="#C7A45F" stroke-width="3" stroke-linecap="round" opacity="0.55"/><line x1="213.9" y1="443.9" x2="158.3" y2="527.0" stroke="#C7A45F" stroke-width="3" stroke-linecap="round" opacity="0.55"/><line x1="190.4" y1="424.6" x2="119.7" y2="495.3" stroke="#C7A45F" stroke-width="3" stroke-linecap="round" opacity="0.55"/><line x1="171.1" y1="401.1" x2="88.0" y2="456.7" stroke="#C7A45F" stroke-width="3" stroke-linecap="round" opacity="0.55"/><line x1="156.8" y1="374.3" x2="64.4" y2="412.6" stroke="#C7A45F" stroke-width="3" stroke-linecap="round" opacity="0.55"/><line x1="148.0" y1="345.2" x2="49.9" y2="364.7" stroke="#C7A45F" stroke-width="3" stroke-linecap="round" opacity="0.55"/><line x1="145.0" y1="315.0" x2="45.0" y2="315.0" stroke="#C7A45F" stroke-width="3" stroke-linecap="round" opacity="0.55"/><line x1="148.0" y1="284.8" x2="49.9" y2="265.3" stroke="#C7A45F" stroke-width="3" stroke-linecap="round" opacity="0.55"/><line x1="156.8" y1="255.7" x2="64.4" y2="217.4" stroke="#C7A45F" stroke-width="3" stroke-linecap="round" opacity="0.55"/><line x1="171.1" y1="228.9" x2="88.0" y2="173.3" stroke="#C7A45F" stroke-width="3" stroke-linecap="round" opacity="0.55"/><line x1="190.4" y1="205.4" x2="119.7" y2="134.7" stroke="#C7A45F" stroke-width="3" stroke-linecap="round" opacity="0.55"/><line x1="213.9" y1="186.1" x2="158.3" y2="103.0" stroke="#C7A45F" stroke-width="3" stroke-linecap="round" opacity="0.55"/><line x1="240.7" y1="171.8" x2="202.4" y2="79.4" stroke="#C7A45F" stroke-width="3" stroke-linecap="round" opacity="0.55"/><line x1="269.8" y1="163.0" x2="250.3" y2="64.9" stroke="#C7A45F" stroke-width="3" stroke-linecap="round" opacity="0.55"/><line x1="300.0" y1="160.0" x2="300.0" y2="60.0" stroke="#C7A45F" stroke-width="3" stroke-linecap="round" opacity="0.55"/><line x1="330.2" y1="163.0" x2="349.7" y2="64.9" stroke="#C7A45F" stroke-width="3" stroke-linecap="round" opacity="0.55"/><line x1="359.3" y1="171.8" x2="397.6" y2="79.4" stroke="#C7A45F" stroke-width="3" stroke-linecap="round" opacity="0.55"/><line x1="386.1" y1="186.1" x2="441.7" y2="103.0" stroke="#C7A45F" stroke-width="3" stroke-linecap="round" opacity="0.55"/><line x1="409.6" y1="205.4" x2="480.3" y2="134.7" stroke="#C7A45F" stroke-width="3" stroke-linecap="round" opacity="0.55"/><line x1="428.9" y1="228.9" x2="512.0" y2="173.3" stroke="#C7A45F" stroke-width="3" stroke-linecap="round" opacity="0.55"/><line x1="443.2" y1="255.7" x2="535.6" y2="217.4" stroke="#C7A45F" stroke-width="3" stroke-linecap="round" opacity="0.55"/><line x1="452.0" y1="284.8" x2="550.1" y2="265.3" stroke="#C7A45F" stroke-width="3" stroke-linecap="round" opacity="0.55"/><path d="M0 392C132 336 235 390 334 356C444 318 510 348 600 300V600H0Z" fill="#EBD9AF" opacity="0.75"/><path d="M0 470C158 408 296 492 438 432C514 400 558 410 600 380V600H0Z" fill="#FFFFFF"/><path d="M90 575V486.8C90 407 510 407 510 486.8V575" fill="none" stroke="#16255C" stroke-width="24" stroke-linecap="round" opacity="0.9"/>
</svg>
