<?xml version="1.0" encoding="UTF-8"?>
<svg xmlns="http://www.w3.org/2000/svg" viewBox="0 0 600 600" width="600" height="600" role="img" aria-hidden="true">
<defs><pattern id="grain" width="28" height="28" patternUnits="userSpaceOnUse"><circle cx="4" cy="6" r="1.2" fill="#FFFFFF" opacity="0.07"/><circle cx="19" cy="15" r="1" fill="#FFFFFF" opacity="0.049"/><circle cx="10" cy="23" r="0.9" fill="#EBD9AF" opacity="0.07"/></pattern></defs><rect width="600" height="600" fill="#0D1738"/><rect width="600" height="600" fill="url(#grain)"/><path d="M-80 600V419.4C-80 256 680 256 680 419.4V600" fill="none" stroke="#2E8FD4" stroke-width="48" stroke-linecap="round" opacity="0.95"/><path d="M70 550V421.9C70 306 530 306 530 421.9V550" fill="none" stroke="#16255C" stroke-width="34" stroke-linecap="round" opacity="1"/><path d="M170 525V436.8C170 357 430 357 430 436.8V525" fill="none" stroke="#C7A45F" stroke-width="16" stroke-linecap="round" opacity="0.85"/><path d="M0 458C130 426 238 490 367 454C463 428 528 435 600 396V600H0Z" fill="#2E8FD4" opacity="0.18"/>
</svg>
